<?xml version="1.0" standalone="no"?>
<!DOCTYPE svg PUBLIC "-//W3C//DTD SVG 20010904//EN"
 "http://www.w3.org/TR/2001/REC-SVG-20010904/DTD/svg10.dtd">
<svg version="1.0" xmlns="http://www.w3.org/2000/svg"
 width="204.000000pt" height="192.000000pt" viewBox="0 0 204.000000 192.000000"
 preserveAspectRatio="xMidYMid meet">

<g transform="translate(0.000000,192.000000) scale(0.100000,-0.100000)"
fill="#000000" stroke="none">
<path d="M959 1591 l-29 -29 0 -338 0 -338 -133 132 c-113 111 -138 132 -164
132 -46 0 -77 -30 -77 -74 0 -35 13 -50 220 -257 165 -164 226 -219 244 -219
18 0 79 55 244 219 207 207 220 222 220 257 0 44 -31 74 -77 74 -26 0 -51 -21
-164 -132 l-133 -132 0 338 0 338 -29 29 c-20 20 -39 29 -61 29 -22 0 -41 -9
-61 -29z"/>
<path d="M360 617 c-40 -20 -51 -53 -47 -137 4 -89 23 -129 77 -159 37 -21 47
-21 630 -21 583 0 593 0 630 21 54 30 73 70 77 159 4 85 -7 118 -50 138 -55
26 -107 -16 -107 -85 0 -33 -6 -50 -25 -68 l-24 -25 -501 0 -501 0 -24 25
c-19 18 -25 35 -25 67 -1 46 -12 68 -47 86 -27 15 -32 15 -63 -1z"/>
</g>
</svg>
